# xmcd
#
# Track frame offsets:
#	150
#	8682
#	19817
#	30332
#	44817
#	54817
#	63762
#	77092
#	95507
#	103982
#	116132
#	129795
#	139667
#	151107
#	163810
#	187450
#
# Disc length: 2687 seconds
#
# Revision: 1
# Processed by: cddbd v1.5.1PL0 Copyright (c) Steve Scherf et al.
# Submitted via: EasyCDDAExtractor 7.0.6.1
#
DISCID=ce0a7d10
DTITLE=Peter Horan - Australia's Country Piano
DYEAR=1900
DGENRE=Country
TTITLE0=Along The Road To Gundagi
TTITLE1=Goanna
TTITLE2=Goldrush
TTITLE3=Last Date
TTITLE4=Indian Paciic
TTITLE5=On The Road To Tamworth
TTITLE6=Lights On The Hill
TTITLE7=Crazy
TTITLE8=Country Revival
TTITLE9=Gemini Sunset
TTITLE10=Music Box Dancer
TTITLE11=Crazy Heart
TTITLE12=Tennessee Waltz
TTITLE13=Just Married
TTITLE14=Room Full Of Roses-Paper Roses
TTITLE15=I fall to Pieces-Your Cheatin' Heart
EXTD=
EXTT0=
EXTT1=
EXTT2=
EXTT3=
EXTT4=
EXTT5=
EXTT6=
EXTT7=
EXTT8=
EXTT9=
EXTT10=
EXTT11=
EXTT12=
EXTT13=
EXTT14=
EXTT15=
PLAYORDER=
